<?xml version="1.0" encoding="UTF-8" standalone="no"?>
<svg
   width="100"
   height="100"
   version="1.1"
   viewBox="0 0 99.999998 100"
   id="svg2"
   xmlns="http://www.w3.org/2000/svg"
   xmlns:svg="http://www.w3.org/2000/svg">
  <defs
     id="defs2" />
  <path
     id="path1"
     style="fill:#000000;stroke-width:0.999999"
     fill-rule="evenodd"
     d="M 50,0 C 10.00023,0 0,10.00004 0,50 0,89.99996 10.00023,100 50,100 89.99977,100 100,89.99996 100,50 100,10.00004 89.99977,0 50,0 Z M 38,26 a 24,24 0 1 0 0,48 24,24 0 1 0 0,-48 z M 62,26 a 24,24 0 1 0 0,48 24,24 0 1 0 0,-48 z" />
</svg>
